<svg id="Layer_1" data-name="Layer 1" xmlns="http://www.w3.org/2000/svg" viewBox="0 0 3062 1605"><defs><style>.cls-1,.cls-19,.cls-27{fill:#3fa9f5;}.cls-2,.cls-20,.cls-31{fill:#fff;}.cls-3{font-size:49px;}.cls-11,.cls-3{font-family:JosefinSans-Bold, Josefin Sans;}.cls-11,.cls-4{font-weight:700;}.cls-5,.cls-6,.cls-7{font-family:JosefinSans, Josefin Sans;}.cls-6{letter-spacing:-0.006em;}.cls-7{letter-spacing:-0.012em;}.cls-13,.cls-18,.cls-23,.cls-24,.cls-32,.cls-8{fill:none;}.cls-18,.cls-23,.cls-24,.cls-27,.cls-28,.cls-29,.cls-30,.cls-31,.cls-32,.cls-8{stroke:#000;}.cls-18,.cls-19,.cls-20,.cls-22,.cls-23,.cls-24,.cls-25,.cls-26,.cls-27,.cls-28,.cls-29,.cls-30,.cls-31,.cls-32,.cls-8{stroke-miterlimit:10;}.cls-9{font-size:31px;}.cls-12,.cls-14,.cls-16,.cls-21,.cls-9{font-family:Roboto-Regular, Roboto;}.cls-10{letter-spacing:-0.005em;}.cls-11{font-size:12px;}.cls-12{font-size:29.974px;}.cls-14{font-size:45px;}.cls-15{letter-spacing:0.009em;}.cls-16{font-size:30px;}.cls-17{letter-spacing:-0.01em;}.cls-18,.cls-19,.cls-20,.cls-22,.cls-24,.cls-25,.cls-26{stroke-width:3px;}.cls-19,.cls-20,.cls-22,.cls-25,.cls-26{stroke:#231f20;stroke-linecap:round;}.cls-21{font-size:18.086px;}.cls-22,.cls-28{fill:#c1272d;}.cls-23{stroke-width:4px;}.cls-24{stroke-dasharray:2;}.cls-25,.cls-30{fill:#662d91;}.cls-26,.cls-29{fill:#009245;}.cls-32{stroke-width:0.5px;}.cls-33{letter-spacing:0.024em;}.cls-34{letter-spacing:-0.01em;}.cls-35{letter-spacing:-0.02em;}.cls-36{letter-spacing:-0.048em;}</style></defs><title>mockup_sem_image</title><rect class="cls-1" x="1696" y="879" width="60" height="57"/><rect class="cls-2" x="373.5" y="133.5" width="516" height="278"/><path d="M897,234V511H382V234H897m1-1H381V512H898V233Z" transform="translate(-8 -100)"/><rect class="cls-2" x="373.5" y="133.5" width="236" height="69"/><path d="M617,234v68H382V234H617m1-1H381v70H618V233Z" transform="translate(-8 -100)"/><text class="cls-3" transform="translate(388.376 182.333)"><tspan class="cls-4">SEM</tspan><tspan class="cls-5" x="102.654" y="0">ph</tspan><tspan class="cls-6" x="152.291" y="0">o</tspan><tspan class="cls-7" x="176.398" y="0">t</tspan><tspan class="cls-5" x="189.824" y="0">o</tspan></text><rect class="cls-8" x="0.5" y="833.5" width="1366" height="33"/><rect class="cls-8" x="0.5" y="866.5" width="61" height="735"/><rect class="cls-8" x="61.5" y="866.5" width="967" height="735"/><rect class="cls-8" x="1028.5" y="866.5" width="338" height="735"/><rect class="cls-8" x="122.5" y="927.5" width="839" height="632"/><rect class="cls-8" x="1522.5" y="0.5" width="285" height="226"/><rect class="cls-8" x="1827.5" y="0.5" width="285" height="226"/><rect class="cls-8" x="2132.5" y="0.5" width="285" height="226"/><rect class="cls-8" x="2437.5" y="0.5" width="285" height="226"/><polygon class="cls-8" points="1487.5 55.5 1461.5 113.5 1487.5 170.5 1487.5 55.5"/><polygon class="cls-8" points="2761.5 56.5 2787.5 114.5 2761.5 171.5 2761.5 56.5"/><polygon class="cls-8" points="2722.5 610.5 2122.5 610.5 1522.5 610.5 1522.5 438.5 1522.5 266.5 2122.5 266.5 2246.552 266.5 2275.5 236.5 2304.421 266.5 2722.5 266.5 2722.5 438.5 2722.5 610.5"/><rect class="cls-8" x="1567.5" y="311.5" width="565" height="261"/><rect class="cls-8" x="2184.5" y="311.5" width="484" height="261"/><text class="cls-9" transform="translate(2211.229 372.218)"><tspan class="cls-10">A</tspan><tspan x="20.056" y="0">uthor:</tspan><tspan class="cls-11" x="100.023" y="0"> </tspan></text><text class="cls-9" transform="translate(2211.229 419.218)">Subject:<tspan class="cls-11" x="110.559" y="0"> </tspan></text><text class="cls-9" transform="translate(2211.229 466.218)">Date:<tspan class="cls-11" x="71.249" y="0"> </tspan></text><text class="cls-9" transform="translate(2211.229 511.218)">Description:</text><text class="cls-12" transform="translate(65.691 860.642)">File</text><path class="cls-13" d="M221,1352h24v24H221Zm0,0h24v24H221Z" transform="translate(-8 -100)"/><path d="M29.751,1024.875a21.5,21.5,0,0,1-12.189-17.334H14.5A24.488,24.488,0,0,0,38.9,1030c.47,0,.9-.041,1.347-.061l-7.779-7.8ZM39.1,981c-.47,0-.9.041-1.347.082l7.779,7.779,2.715-2.715a21.44,21.44,0,0,1,12.189,17.313H63.5A24.488,24.488,0,0,0,39.1,981Zm8.065,28.583H51.25v-12.25a4.082,4.082,0,0,0-4.083-4.083H34.917v4.083h12.25Zm-16.333,4.083v-24.5H26.75v4.083H22.667v4.083H26.75v16.333a4.082,4.082,0,0,0,4.083,4.083H47.167v4.083H51.25v-4.083h4.083v-4.083Z" transform="translate(-8 -100)"/><path d="M22,1182.293V1190h7.707l22.731-22.731-7.707-7.707Zm36.4-20.984a2.047,2.047,0,0,0,0-2.9L53.59,1153.6a2.047,2.047,0,0,0-2.9,0l-3.761,3.761,7.707,7.707Z" transform="translate(-8 -100)"/><path class="cls-13" d="M221,1352h24v24H221Z" transform="translate(-8 -100)"/><path d="M30.376,1248.278l-3.242-3.224-2.54,2.54,3.224,3.224Zm-4.972,10.2H20v3.6h5.4Zm16.212-17.924h-3.6v5.314h3.6Zm13.42,7.043-2.54-2.54-3.224,3.224,2.54,2.54Zm-5.782,24.679,3.224,3.242,2.54-2.54-3.242-3.224Zm4.972-13.8v3.6h5.4v-3.6Zm-14.411-9.007a10.808,10.808,0,1,0,10.808,10.808A10.817,10.817,0,0,0,39.815,1249.467ZM38.014,1280h3.6v-5.314h-3.6Zm-13.42-7.043,2.54,2.54,3.224-3.242-2.54-2.54Z" transform="translate(-8 -100)"/><path d="M37.5,1350.3a16.065,16.065,0,0,1-11.037-4.329l22.074-20.942A14.454,14.454,0,0,1,53.1,1335.5c0,8.174-6.984,14.8-15.6,14.8m-11.7-22.2h3.9v-3.7h2.925v3.7h3.9v2.775h-3.9v3.7H29.7v-3.7H25.8M37.5,1317c-10.77,0-19.5,8.283-19.5,18.5s8.73,18.5,19.5,18.5,19.5-8.283,19.5-18.5S48.27,1317,37.5,1317m0,25.9h9.75v-2.775H37.5Z" transform="translate(-8 -100)"/><path d="M29.475,1407.25a2.775,2.775,0,1,0-2.775-2.775,2.775,2.775,0,0,0,2.775,2.775m29.433,8.473A3.7,3.7,0,0,1,60,1418.35a3.617,3.617,0,0,1-1.092,2.609l-12.95,12.95A3.693,3.693,0,0,1,43.35,1435a3.77,3.77,0,0,1-2.627-1.091l-16.632-16.65A3.617,3.617,0,0,1,23,1414.65V1401.7a3.687,3.687,0,0,1,3.7-3.7H39.65a3.677,3.677,0,0,1,2.608,1.073l16.65,16.65M43.35,1431.3l12.95-12.95-15.725-15.725-12.95,12.95L43.35,1431.3m-5.383-20.516,2.608-2.609L50.75,1418.35l-2.608,2.609-10.175-10.175m-4.625,4.625,2.608-2.609,7.4,7.4-2.608,2.609Z" transform="translate(-8 -100)"/><path d="M55.44,1072.246l2.56,9.6-2.118.574c-.993-1.92-2.008-3.84-3.178-4.811a5.709,5.709,0,0,0-3.884-.949H43.3v23.17c0,1.1,0,2.207.728,2.758.75.552,2.207.552,3.685.552v2.207H34.477v-2.207c1.478,0,2.935,0,3.685-.552.728-.552.728-1.655.728-2.758v-23.17H33.373a5.709,5.709,0,0,0-3.884.949c-1.17.971-2.185,2.891-3.178,4.811l-2.118-.574,2.56-9.6Z" transform="translate(-8 -100)"/><text class="cls-14" transform="translate(480.517 1244.205)">I<tspan class="cls-15" x="12.239" y="0">M</tspan><tspan class="cls-10" x="51.921" y="0">A</tspan><tspan x="81.035" y="0">GE</tspan></text><rect class="cls-8" x="1695.5" y="835.5" width="1366" height="33"/><rect class="cls-8" x="1695.5" y="868.5" width="61" height="735"/><rect class="cls-8" x="1756.5" y="868.5" width="967" height="735"/><rect class="cls-8" x="2723.5" y="868.5" width="338" height="735"/><rect class="cls-8" x="1817.5" y="929.5" width="839" height="632"/><text class="cls-16" transform="translate(1760.691 862.642)">File</text><path class="cls-13" d="M1916,1354h24v24h-24Zm0,0h24v24h-24Z" transform="translate(-8 -100)"/><path d="M1724.751,1026.875a21.5,21.5,0,0,1-12.189-17.334H1709.5A24.488,24.488,0,0,0,1733.9,1032c.47,0,.9-.041,1.348-.061l-7.779-7.8ZM1734.1,983c-.47,0-.9.041-1.348.082l7.779,7.779,2.715-2.715a21.44,21.44,0,0,1,12.189,17.313h3.063A24.488,24.488,0,0,0,1734.1,983Zm8.065,28.583h4.083v-12.25a4.082,4.082,0,0,0-4.083-4.083h-12.25v4.083h12.25Zm-16.333,4.083v-24.5h-4.083v4.083h-4.083v4.083h4.083v16.333a4.082,4.082,0,0,0,4.083,4.083h16.333v4.083h4.083v-4.083h4.083v-4.083Z" transform="translate(-8 -100)"/><path d="M1717,1184.293V1192h7.707l22.731-22.731-7.707-7.707Zm36.4-20.984a2.047,2.047,0,0,0,0-2.9l-4.809-4.809a2.047,2.047,0,0,0-2.9,0l-3.761,3.761,7.707,7.707Z" transform="translate(-8 -100)"/><path class="cls-13" d="M1916,1354h24v24h-24Z" transform="translate(-8 -100)"/><path d="M1725.376,1250.278l-3.242-3.224-2.54,2.54,3.224,3.224Zm-4.972,10.2H1715v3.6h5.4Zm16.212-17.924h-3.6v5.314h3.6Zm13.42,7.043-2.54-2.54-3.224,3.224,2.54,2.54Zm-5.782,24.679,3.224,3.242,2.54-2.54-3.242-3.224Zm4.972-13.8v3.6h5.4v-3.6Zm-14.411-9.007a10.808,10.808,0,1,0,10.808,10.808A10.817,10.817,0,0,0,1734.815,1251.467Zm-1.8,30.533h3.6v-5.314h-3.6Zm-13.42-7.043,2.54,2.54,3.224-3.242-2.54-2.54Z" transform="translate(-8 -100)"/><path d="M1732.5,1352.3a16.065,16.065,0,0,1-11.037-4.329l22.074-20.942a14.454,14.454,0,0,1,4.563,10.471c0,8.174-6.984,14.8-15.6,14.8m-11.7-22.2h3.9v-3.7h2.925v3.7h3.9v2.775h-3.9v3.7H1724.7v-3.7h-3.9M1732.5,1319c-10.77,0-19.5,8.283-19.5,18.5s8.73,18.5,19.5,18.5,19.5-8.283,19.5-18.5-8.73-18.5-19.5-18.5m0,25.9h9.75v-2.775h-9.75Z" transform="translate(-8 -100)"/><path d="M1724.475,1409.25a2.775,2.775,0,1,0-2.775-2.775,2.775,2.775,0,0,0,2.775,2.775m29.434,8.473a3.7,3.7,0,0,1,1.091,2.627,3.617,3.617,0,0,1-1.091,2.609l-12.95,12.95a3.693,3.693,0,0,1-2.609,1.091,3.77,3.77,0,0,1-2.627-1.091l-16.631-16.65a3.617,3.617,0,0,1-1.091-2.608V1403.7a3.687,3.687,0,0,1,3.7-3.7h12.95a3.677,3.677,0,0,1,2.608,1.073l16.65,16.65M1738.35,1433.3l12.95-12.95-15.725-15.725-12.95,12.95,15.725,15.725m-5.383-20.516,2.609-2.609,10.175,10.175-2.609,2.609-10.175-10.175m-4.625,4.625,2.609-2.609,7.4,7.4-2.608,2.609Z" transform="translate(-8 -100)"/><path d="M1750.44,1074.246l2.56,9.6-2.118.574c-.993-1.92-2.008-3.84-3.178-4.811a5.709,5.709,0,0,0-3.884-.949H1738.3v23.17c0,1.1,0,2.207.728,2.758.75.552,2.207.552,3.685.552v2.207h-13.24v-2.207c1.478,0,2.935,0,3.685-.552.728-.552.728-1.655.728-2.758v-23.17h-5.517a5.709,5.709,0,0,0-3.884.949c-1.17.971-2.185,2.891-3.178,4.811l-2.118-.574,2.56-9.6Z" transform="translate(-8 -100)"/><text class="cls-14" transform="translate(2175.517 1246.205)">I<tspan class="cls-15" x="12.239" y="0">M</tspan><tspan class="cls-10" x="51.921" y="0">A</tspan><tspan x="81.035" y="0">GE</tspan></text><rect class="cls-8" x="2723.393" y="868.5" width="338" height="735"/><line class="cls-8" x1="2723.393" y1="941.5" x2="3061.393" y2="941.5"/><text class="cls-14" transform="translate(2736.307 920.343)">C<tspan class="cls-17" x="29.289" y="0">r</tspan><tspan x="44.077" y="0">op &amp; Rotate</tspan></text><line class="cls-18" x1="2767.25" y1="1005.5" x2="2996.5" y2="1005.5"/><circle class="cls-19" cx="2973.065" cy="1006.137" r="10.858"/><polygon class="cls-20" points="2990.5 981.5 2990.5 955.5 2948.5 955.5 2948.5 981.5 2966.604 981.5 2972.5 989.5 2976.452 981.5 2990.5 981.5"/><text class="cls-21" transform="translate(2959.064 975.473)">50</text><line class="cls-18" x1="2771.25" y1="1081.5" x2="3000.5" y2="1081.5"/><circle class="cls-22" cx="2793.065" cy="1081.137" r="10.858"/><polygon class="cls-20" points="2810.5 1055.5 2810.5 1029.5 2768.5 1029.5 2768.5 1055.5 2786.604 1055.5 2792.5 1063.5 2796.452 1055.5 2810.5 1055.5"/><text class="cls-21" transform="translate(2779.064 1049.473)">50</text><line class="cls-18" x1="2774.25" y1="1321.5" x2="3003.5" y2="1321.5"/><circle class="cls-20" cx="2893.065" cy="1321.137" r="10.858"/><polygon class="cls-20" points="2910.5 1298.5 2910.5 1272.5 2868.5 1272.5 2868.5 1298.5 2886.604 1298.5 2892.5 1306.5 2896.452 1298.5 2910.5 1298.5"/><text class="cls-21" transform="translate(2883.064 1292.473)">0ยบ</text><path d="M2796.417,1606.161a30.852,30.852,0,0,1-5.173-12.678H2781a40.094,40.094,0,0,0,8.216,19.727l7.2-7.049m19.727,12.171a29.341,29.341,0,0,1-12.475-5.223l-7.3,7.3a40.185,40.185,0,0,0,19.778,8.165v-10.244m-24.9-34.992a29.444,29.444,0,0,1,5.173-12.526l-7.2-7.2A40.094,40.094,0,0,0,2781,1583.34m45.287-5.071V1558.44a30.391,30.391,0,0,1,0,59.943v10.244a40.529,40.529,0,0,0,0-80.431v-15.569l-23.074,23.074Z" transform="translate(-8 -100)"/><path d="M3008.524,1605.979l7.244,7.005a40.094,40.094,0,0,0,8.1-19.777l-10.244.062a30.852,30.852,0,0,1-5.1,12.71m-19.653,12.291.062,10.244a40.185,40.185,0,0,0,19.728-8.285l-7.347-7.258a29.341,29.341,0,0,1-12.443,5.3m34.931-35.205a40.094,40.094,0,0,0-8.335-19.677l-7.157,7.245a29.444,29.444,0,0,1,5.249,12.494m-12.136-27.565-23.215-22.934.095,15.569a40.529,40.529,0,0,0,.49,80.43l-.062-10.244a30.391,30.391,0,0,1-.365-59.942l.121,19.828Z" transform="translate(-8 -100)"/><rect class="cls-23" x="2755" y="1421.078" width="120" height="119.098"/><rect class="cls-23" x="2923" y="1521.078" width="120" height="119.098" transform="translate(-17.568 -81.809) rotate(-0.349)"/><path d="M2749,1428.254a12.011,12.011,0,0,1-2.014-4.936H2743a15.609,15.609,0,0,0,3.2,7.68l2.8-2.744m7.68,4.738a11.422,11.422,0,0,1-4.857-2.033l-2.843,2.843a15.644,15.644,0,0,0,7.7,3.179v-3.988m-9.694-13.622a11.462,11.462,0,0,1,2.014-4.876l-2.8-2.8a15.609,15.609,0,0,0-3.2,7.68m17.63-1.974v-7.719a11.831,11.831,0,0,1,0,23.336V1437a15.778,15.778,0,0,0,0-31.312v-6.061l-8.983,8.983Z" transform="translate(-8 -100)"/><path d="M3049.448,1428.254l2.8,2.744a15.609,15.609,0,0,0,3.2-7.68h-3.988a12.011,12.011,0,0,1-2.014,4.936m-7.68,4.738v3.988a15.644,15.644,0,0,0,7.7-3.179l-2.843-2.843a11.422,11.422,0,0,1-4.857,2.033m13.682-13.622a15.609,15.609,0,0,0-3.2-7.68l-2.8,2.8a11.462,11.462,0,0,1,2.014,4.876m-4.659-10.76-8.983-8.983v6.061a15.778,15.778,0,0,0,0,31.312v-3.988a11.831,11.831,0,0,1,0-23.336v7.719Z" transform="translate(-8 -100)"/><path class="cls-24" d="M3045,1249" transform="translate(-8 -100)"/><rect class="cls-8" x="1029.25" y="869.5" width="338" height="735"/><line class="cls-8" x1="1029.25" y1="942.5" x2="1367.25" y2="942.5"/><text class="cls-14" transform="translate(1042.164 921.343)">Brightness</text><line class="cls-18" x1="1078.25" y1="1072.5" x2="1307.5" y2="1072.5"/><circle class="cls-20" cx="1100.065" cy="1072.137" r="10.858"/><polygon class="cls-20" points="1117.5 1046.5 1117.5 1020.5 1075.5 1020.5 1075.5 1046.5 1093.604 1046.5 1099.5 1054.5 1103.452 1046.5 1117.5 1046.5"/><text class="cls-21" transform="translate(1086.064 1040.473)">10</text><path d="M1055.593,1163.205l-2.373-2.36-1.859,1.859,2.36,2.36Zm-3.638,7.461H1048v2.636h3.955Zm11.864-13.116h-2.636v3.889h2.636Zm9.82,5.154-1.859-1.859-2.36,2.36,1.859,1.859Zm-4.231,18.059,2.36,2.373,1.859-1.859-2.373-2.36Zm3.638-10.1v2.636H1077v-2.636Zm-10.545-6.591a7.909,7.909,0,1,0,7.909,7.909A7.915,7.915,0,0,0,1062.5,1164.075Zm-1.318,22.343h2.636v-3.889h-2.636Zm-9.82-5.154,1.859,1.859,2.36-2.373-1.859-1.859Z" transform="translate(-8 -100)"/><path d="M1337.376,1158.278l-3.242-3.224-2.54,2.54,3.224,3.224Zm-4.972,10.2H1327v3.6h5.4Zm16.212-17.924h-3.6v5.314h3.6Zm13.42,7.043-2.54-2.54-3.224,3.224,2.54,2.54Zm-5.782,24.679,3.224,3.242,2.54-2.54-3.242-3.224Zm4.972-13.8v3.6h5.4v-3.6Zm-14.411-9.007a10.808,10.808,0,1,0,10.808,10.808A10.817,10.817,0,0,0,1346.815,1159.467Zm-1.8,30.533h3.6v-5.314h-3.6Zm-13.42-7.043,2.54,2.54,3.224-3.242-2.54-2.54Z" transform="translate(-8 -100)"/><rect class="cls-8" x="1818.5" y="928.5" width="839" height="632"/><line class="cls-18" x1="2788.174" y1="1120.604" x2="2788.174" y2="1258.5"/><circle class="cls-25" cx="2796.647" cy="1242.417" r="10.858" transform="translate(-14.26 -85.811) rotate(-0.29)"/><polygon class="cls-20" points="2814.373 1159.722 2840.372 1159.59 2840.159 1117.591 2814.16 1117.723 2814.252 1135.827 2806.282 1141.763 2814.301 1145.674 2814.373 1159.722"/><text class="cls-21" transform="translate(2815.512 1143.842) rotate(-0.971)">50</text><line class="cls-18" x1="2928.174" y1="1122.604" x2="2928.174" y2="1260.5"/><circle class="cls-26" cx="2935.647" cy="1338.417" r="10.858" transform="translate(-14.745 -85.105) rotate(-0.29)"/><polygon class="cls-20" points="2955.373 1253.722 2981.372 1253.59 2981.159 1211.591 2955.16 1211.723 2955.252 1229.827 2947.282 1235.763 2955.301 1239.674 2955.373 1253.722"/><text class="cls-21" transform="translate(2956.512 1237.842) rotate(-0.971)">50</text><rect class="cls-27" x="2606.5" y="928.5" width="50" height="632"/><rect class="cls-28" x="1819.5" y="929.5" width="50" height="632"/><rect class="cls-29" x="2220.5" y="1216.5" width="50" height="840" transform="translate(3874 -709) rotate(90)"/><rect class="cls-30" x="1817.5" y="929.5" width="840" height="50"/><rect class="cls-31" x="1484" y="782.5" width="124" height="79"/><path class="cls-8" d="M1798.5,935.5s-58.367-87.725-134-31c-36,27-49,18-49,18" transform="translate(-8 -100)"/><text class="cls-16" transform="translate(1488.274 810.958)">Open</text><line class="cls-32" x1="1483.9" y1="821.5" x2="1608.9" y2="821.5"/><text class="cls-16" transform="translate(1489.278 850.478) rotate(-0.027)">Expo<tspan class="cls-33" x="65.859" y="0">r</tspan><tspan x="76.743" y="0">t</tspan></text><text class="cls-16" transform="translate(1489.454 913.514)">C<tspan class="cls-34" x="19.526" y="0">r</tspan><tspan x="29.385" y="0">op &amp; Rotate</tspan></text><text class="cls-16" transform="translate(1526.564 998.242)">Add<tspan class="cls-35" x="53.408" y="0"> </tspan><tspan class="cls-36" x="60.249" y="0">T</tspan><tspan x="76.699" y="0">ext</tspan></text><text class="cls-16" transform="translate(1575.028 1079.101)">D<tspan class="cls-35" x="19.673" y="0">r</tspan><tspan x="29.238" y="0">aw</tspan></text><text class="cls-16" transform="translate(1535.743 1167.251)">Brightness</text><text class="cls-16" transform="translate(1562.581 1248.192)">Cont<tspan class="cls-35" x="62.988" y="0">r</tspan><tspan x="72.554" y="0">ast</tspan></text><text class="cls-16" transform="translate(1557.633 1318.366)">Metadata</text></svg>