<svg id="Layer_1" data-name="Layer 1" xmlns="http://www.w3.org/2000/svg" viewBox="0 0 3115 2779"><defs><style>.cls-1,.cls-19,.cls-27{fill:#3fa9f5;}.cls-2,.cls-20,.cls-31,.cls-37{fill:#fff;}.cls-3{font-size:49px;}.cls-11,.cls-3{font-family:JosefinSans-Bold, Josefin Sans;}.cls-11,.cls-4{font-weight:700;}.cls-5,.cls-6,.cls-7{font-family:JosefinSans, Josefin Sans;}.cls-6{letter-spacing:-0.006em;}.cls-7{letter-spacing:-0.012em;}.cls-13,.cls-18,.cls-23,.cls-24,.cls-32,.cls-8{fill:none;}.cls-18,.cls-23,.cls-24,.cls-27,.cls-28,.cls-29,.cls-30,.cls-31,.cls-32,.cls-37,.cls-8{stroke:#000;}.cls-18,.cls-19,.cls-20,.cls-22,.cls-23,.cls-24,.cls-25,.cls-26,.cls-27,.cls-28,.cls-29,.cls-30,.cls-31,.cls-32,.cls-37,.cls-8{stroke-miterlimit:10;}.cls-9{font-size:31px;}.cls-12,.cls-14,.cls-16,.cls-21,.cls-9{font-family:Roboto-Regular, Roboto;}.cls-10{letter-spacing:-0.005em;}.cls-11{font-size:12px;}.cls-12{font-size:29.974px;}.cls-14{font-size:45px;}.cls-15{letter-spacing:0.009em;}.cls-16{font-size:30px;}.cls-17{letter-spacing:-0.01em;}.cls-18,.cls-19,.cls-20,.cls-22,.cls-24,.cls-25,.cls-26{stroke-width:3px;}.cls-19,.cls-20,.cls-22,.cls-25,.cls-26{stroke:#231f20;stroke-linecap:round;}.cls-21{font-size:18.086px;}.cls-22,.cls-28{fill:#c1272d;}.cls-23{stroke-width:4px;}.cls-24{stroke-dasharray:2;}.cls-25,.cls-30{fill:#662d91;}.cls-26,.cls-29{fill:#009245;}.cls-32{stroke-width:0.5px;}.cls-33{letter-spacing:0.024em;}.cls-34{letter-spacing:-0.01em;}.cls-35{letter-spacing:-0.02em;}.cls-36{letter-spacing:-0.048em;}.cls-37{stroke-width:2px;}</style></defs><title>mockup_sem_image_v2</title><rect class="cls-1" x="1749" y="979" width="60" height="57"/><rect class="cls-2" x="426.5" y="233.5" width="516" height="278"/><path d="M968,313V590H453V313H968m1-1H452V591H969V312Z" transform="translate(-26 -79)"/><rect class="cls-2" x="426.5" y="233.5" width="236" height="69"/><path d="M688,313v68H453V313H688m1-1H452v70H689V312Z" transform="translate(-26 -79)"/><text class="cls-3" transform="translate(441.376 282.333)"><tspan class="cls-4">SEM</tspan><tspan class="cls-5" x="102.654" y="0">ph</tspan><tspan class="cls-6" x="152.291" y="0">o</tspan><tspan class="cls-7" x="176.398" y="0">t</tspan><tspan class="cls-5" x="189.824" y="0">o</tspan></text><rect class="cls-8" x="53.5" y="933.5" width="1366" height="33"/><rect class="cls-8" x="53.5" y="966.5" width="61" height="735"/><rect class="cls-8" x="114.5" y="966.5" width="967" height="735"/><rect class="cls-8" x="1081.5" y="966.5" width="338" height="735"/><rect class="cls-8" x="175.5" y="1027.5" width="839" height="632"/><rect class="cls-8" x="1575.5" y="100.5" width="285" height="226"/><rect class="cls-8" x="1880.5" y="100.5" width="285" height="226"/><rect class="cls-8" x="2185.5" y="100.5" width="285" height="226"/><rect class="cls-8" x="2490.5" y="100.5" width="285" height="226"/><polygon class="cls-8" points="1540.5 155.5 1514.5 213.5 1540.5 270.5 1540.5 155.5"/><polygon class="cls-8" points="2814.5 156.5 2840.5 214.5 2814.5 271.5 2814.5 156.5"/><polygon class="cls-8" points="2775.5 710.5 2175.5 710.5 1575.5 710.5 1575.5 538.5 1575.5 366.5 2175.5 366.5 2299.552 366.5 2328.5 336.5 2357.421 366.5 2775.5 366.5 2775.5 538.5 2775.5 710.5"/><rect class="cls-8" x="1620.5" y="411.5" width="565" height="261"/><rect class="cls-8" x="2237.5" y="411.5" width="484" height="261"/><text class="cls-9" transform="translate(2264.229 472.218)"><tspan class="cls-10">A</tspan><tspan x="20.056" y="0">uthor:</tspan><tspan class="cls-11" x="100.023" y="0"> </tspan></text><text class="cls-9" transform="translate(2264.229 519.218)">Subject:<tspan class="cls-11" x="110.559" y="0"> </tspan></text><text class="cls-9" transform="translate(2264.229 566.218)">Date:<tspan class="cls-11" x="71.249" y="0"> </tspan></text><text class="cls-9" transform="translate(2264.229 611.218)">Description:</text><text class="cls-12" transform="translate(118.691 960.642)">File</text><path class="cls-13" d="M292,1431h24v24H292Zm0,0h24v24H292Z" transform="translate(-26 -79)"/><path d="M100.751,1103.875a21.5,21.5,0,0,1-12.189-17.334H85.5A24.488,24.488,0,0,0,109.9,1109c.47,0,.9-.041,1.347-.061l-7.779-7.8ZM110.1,1060c-.47,0-.9.041-1.347.082l7.779,7.779,2.715-2.715a21.44,21.44,0,0,1,12.189,17.313H134.5A24.488,24.488,0,0,0,110.1,1060Zm8.065,28.583h4.083v-12.25a4.082,4.082,0,0,0-4.083-4.083h-12.25v4.083h12.25Zm-16.333,4.083v-24.5H97.75v4.083H93.667v4.083H97.75v16.333a4.082,4.082,0,0,0,4.083,4.083h16.333v4.083h4.083v-4.083h4.083v-4.083Z" transform="translate(-26 -79)"/><path d="M93,1261.293V1269h7.707l22.731-22.731-7.707-7.707Zm36.4-20.984a2.047,2.047,0,0,0,0-2.9l-4.809-4.809a2.047,2.047,0,0,0-2.9,0l-3.761,3.761,7.707,7.707Z" transform="translate(-26 -79)"/><path class="cls-13" d="M292,1431h24v24H292Z" transform="translate(-26 -79)"/><path d="M101.376,1327.278l-3.242-3.224-2.54,2.54,3.224,3.224Zm-4.972,10.2H91v3.6h5.4Zm16.212-17.924h-3.6v5.314h3.6Zm13.42,7.043-2.54-2.54-3.224,3.224,2.54,2.54Zm-5.782,24.679,3.224,3.242,2.54-2.54-3.242-3.224Zm4.972-13.8v3.6h5.4v-3.6Zm-14.411-9.007a10.808,10.808,0,1,0,10.808,10.808A10.817,10.817,0,0,0,110.815,1328.467Zm-1.8,30.533h3.6v-5.314h-3.6Zm-13.42-7.043,2.54,2.54,3.224-3.242-2.54-2.54Z" transform="translate(-26 -79)"/><path d="M108.5,1429.3a16.065,16.065,0,0,1-11.037-4.329l22.074-20.942A14.454,14.454,0,0,1,124.1,1414.5c0,8.174-6.984,14.8-15.6,14.8m-11.7-22.2h3.9v-3.7h2.925v3.7h3.9v2.775h-3.9v3.7H100.7v-3.7H96.8M108.5,1396c-10.77,0-19.5,8.283-19.5,18.5s8.73,18.5,19.5,18.5,19.5-8.283,19.5-18.5-8.73-18.5-19.5-18.5m0,25.9h9.75v-2.775H108.5Z" transform="translate(-26 -79)"/><path d="M100.475,1486.25a2.775,2.775,0,1,0-2.775-2.775,2.775,2.775,0,0,0,2.775,2.775m29.433,8.473A3.7,3.7,0,0,1,131,1497.35a3.617,3.617,0,0,1-1.092,2.609l-12.95,12.95A3.693,3.693,0,0,1,114.35,1514a3.77,3.77,0,0,1-2.627-1.091l-16.632-16.65A3.617,3.617,0,0,1,94,1493.65V1480.7a3.687,3.687,0,0,1,3.7-3.7h12.95a3.677,3.677,0,0,1,2.608,1.073l16.65,16.65M114.35,1510.3l12.95-12.95-15.725-15.725-12.95,12.95L114.35,1510.3m-5.383-20.516,2.608-2.609,10.175,10.175-2.608,2.609-10.175-10.175m-4.625,4.625,2.608-2.609,7.4,7.4-2.608,2.609Z" transform="translate(-26 -79)"/><path d="M126.44,1151.246l2.56,9.6-2.118.574c-.993-1.92-2.008-3.84-3.178-4.811a5.709,5.709,0,0,0-3.884-.949H114.3v23.17c0,1.1,0,2.207.728,2.758.75.552,2.207.552,3.685.552v2.207h-13.24v-2.207c1.478,0,2.935,0,3.685-.552.728-.552.728-1.655.728-2.758v-23.17h-5.517a5.709,5.709,0,0,0-3.884.949c-1.17.971-2.185,2.891-3.178,4.811l-2.118-.574,2.56-9.6Z" transform="translate(-26 -79)"/><text class="cls-14" transform="translate(533.517 1344.205)">I<tspan class="cls-15" x="12.239" y="0">M</tspan><tspan class="cls-10" x="51.921" y="0">A</tspan><tspan x="81.035" y="0">GE</tspan></text><rect class="cls-8" x="1748.5" y="935.5" width="1366" height="33"/><rect class="cls-8" x="1748.5" y="968.5" width="61" height="735"/><rect class="cls-8" x="1809.5" y="968.5" width="967" height="735"/><rect class="cls-8" x="2776.5" y="968.5" width="338" height="735"/><rect class="cls-8" x="1870.5" y="1029.5" width="839" height="632"/><text class="cls-16" transform="translate(1813.691 962.642)">File</text><path class="cls-13" d="M1987,1433h24v24h-24Zm0,0h24v24h-24Z" transform="translate(-26 -79)"/><path d="M1795.751,1105.875a21.5,21.5,0,0,1-12.189-17.334H1780.5A24.488,24.488,0,0,0,1804.9,1111c.47,0,.9-.041,1.348-.061l-7.779-7.8ZM1805.1,1062c-.47,0-.9.041-1.348.082l7.779,7.779,2.715-2.715a21.44,21.44,0,0,1,12.189,17.313h3.063A24.488,24.488,0,0,0,1805.1,1062Zm8.065,28.583h4.083v-12.25a4.082,4.082,0,0,0-4.083-4.083h-12.25v4.083h12.25Zm-16.333,4.083v-24.5h-4.083v4.083h-4.083v4.083h4.083v16.333a4.082,4.082,0,0,0,4.083,4.083h16.333v4.083h4.083v-4.083h4.083v-4.083Z" transform="translate(-26 -79)"/><path d="M1788,1263.293V1271h7.707l22.731-22.731-7.707-7.707Zm36.4-20.984a2.047,2.047,0,0,0,0-2.9l-4.809-4.809a2.047,2.047,0,0,0-2.9,0l-3.761,3.761,7.707,7.707Z" transform="translate(-26 -79)"/><path class="cls-13" d="M1987,1433h24v24h-24Z" transform="translate(-26 -79)"/><path d="M1796.376,1329.278l-3.242-3.224-2.54,2.54,3.224,3.224Zm-4.972,10.2H1786v3.6h5.4Zm16.212-17.924h-3.6v5.314h3.6Zm13.42,7.043-2.54-2.54-3.224,3.224,2.54,2.54Zm-5.782,24.679,3.224,3.242,2.54-2.54-3.242-3.224Zm4.972-13.8v3.6h5.4v-3.6Zm-14.411-9.007a10.808,10.808,0,1,0,10.808,10.808A10.817,10.817,0,0,0,1805.815,1330.467Zm-1.8,30.533h3.6v-5.314h-3.6Zm-13.42-7.043,2.54,2.54,3.224-3.242-2.54-2.54Z" transform="translate(-26 -79)"/><path d="M1803.5,1431.3a16.065,16.065,0,0,1-11.037-4.329l22.074-20.942a14.454,14.454,0,0,1,4.563,10.471c0,8.174-6.984,14.8-15.6,14.8m-11.7-22.2h3.9v-3.7h2.925v3.7h3.9v2.775h-3.9v3.7H1795.7v-3.7h-3.9M1803.5,1398c-10.77,0-19.5,8.283-19.5,18.5s8.73,18.5,19.5,18.5,19.5-8.283,19.5-18.5-8.73-18.5-19.5-18.5m0,25.9h9.75v-2.775h-9.75Z" transform="translate(-26 -79)"/><path d="M1795.475,1488.25a2.775,2.775,0,1,0-2.775-2.775,2.775,2.775,0,0,0,2.775,2.775m29.434,8.473a3.7,3.7,0,0,1,1.091,2.627,3.617,3.617,0,0,1-1.091,2.609l-12.95,12.95a3.693,3.693,0,0,1-2.609,1.091,3.77,3.77,0,0,1-2.627-1.091l-16.631-16.65a3.617,3.617,0,0,1-1.091-2.608V1482.7a3.687,3.687,0,0,1,3.7-3.7h12.95a3.677,3.677,0,0,1,2.608,1.073l16.65,16.65M1809.35,1512.3l12.95-12.95-15.725-15.725-12.95,12.95,15.725,15.725m-5.383-20.516,2.609-2.609,10.175,10.175-2.609,2.609-10.175-10.175m-4.625,4.625,2.609-2.609,7.4,7.4-2.608,2.609Z" transform="translate(-26 -79)"/><path d="M1821.44,1153.246l2.56,9.6-2.118.574c-.993-1.92-2.008-3.84-3.178-4.811a5.709,5.709,0,0,0-3.884-.949H1809.3v23.17c0,1.1,0,2.207.728,2.758.75.552,2.207.552,3.685.552v2.207h-13.24v-2.207c1.478,0,2.935,0,3.685-.552.728-.552.728-1.655.728-2.758v-23.17h-5.517a5.709,5.709,0,0,0-3.884.949c-1.17.971-2.185,2.891-3.178,4.811l-2.118-.574,2.56-9.6Z" transform="translate(-26 -79)"/><text class="cls-14" transform="translate(2228.517 1346.205)">I<tspan class="cls-15" x="12.239" y="0">M</tspan><tspan class="cls-10" x="51.921" y="0">A</tspan><tspan x="81.035" y="0">GE</tspan></text><rect class="cls-8" x="2776.393" y="968.5" width="338" height="735"/><line class="cls-8" x1="2776.393" y1="1041.5" x2="3114.393" y2="1041.5"/><text class="cls-14" transform="translate(2789.307 1020.343)">C<tspan class="cls-17" x="29.289" y="0">r</tspan><tspan x="44.077" y="0">op &amp; Rotate</tspan></text><line class="cls-18" x1="2820.25" y1="1105.5" x2="3049.5" y2="1105.5"/><circle class="cls-19" cx="3026.065" cy="1106.137" r="10.858"/><polygon class="cls-20" points="3043.5 1081.5 3043.5 1055.5 3001.5 1055.5 3001.5 1081.5 3019.604 1081.5 3025.5 1089.5 3029.452 1081.5 3043.5 1081.5"/><text class="cls-21" transform="translate(3012.064 1075.473)">50</text><line class="cls-18" x1="2824.25" y1="1181.5" x2="3053.5" y2="1181.5"/><circle class="cls-22" cx="2846.065" cy="1181.137" r="10.858"/><polygon class="cls-20" points="2863.5 1155.5 2863.5 1129.5 2821.5 1129.5 2821.5 1155.5 2839.604 1155.5 2845.5 1163.5 2849.452 1155.5 2863.5 1155.5"/><text class="cls-21" transform="translate(2832.064 1149.473)">50</text><line class="cls-18" x1="2827.25" y1="1421.5" x2="3056.5" y2="1421.5"/><circle class="cls-20" cx="2946.065" cy="1421.137" r="10.858"/><polygon class="cls-20" points="2963.5 1398.5 2963.5 1372.5 2921.5 1372.5 2921.5 1398.5 2939.604 1398.5 2945.5 1406.5 2949.452 1398.5 2963.5 1398.5"/><text class="cls-21" transform="translate(2936.064 1392.473)">0ยบ</text><path d="M2867.417,1685.161a30.852,30.852,0,0,1-5.173-12.678H2852a40.094,40.094,0,0,0,8.216,19.727l7.2-7.049m19.727,12.171a29.341,29.341,0,0,1-12.475-5.223l-7.3,7.3a40.185,40.185,0,0,0,19.778,8.165v-10.244m-24.9-34.992a29.444,29.444,0,0,1,5.173-12.526l-7.2-7.2A40.094,40.094,0,0,0,2852,1662.34m45.287-5.071V1637.44a30.391,30.391,0,0,1,0,59.943v10.244a40.529,40.529,0,0,0,0-80.431v-15.569l-23.074,23.074Z" transform="translate(-26 -79)"/><path d="M3079.524,1684.979l7.244,7.005a40.094,40.094,0,0,0,8.1-19.777l-10.244.062a30.852,30.852,0,0,1-5.1,12.71m-19.653,12.291.062,10.244a40.185,40.185,0,0,0,19.728-8.285l-7.347-7.258a29.341,29.341,0,0,1-12.443,5.3m34.931-35.205a40.094,40.094,0,0,0-8.335-19.677l-7.157,7.245a29.444,29.444,0,0,1,5.249,12.494m-12.136-27.565-23.215-22.934.095,15.569a40.529,40.529,0,0,0,.49,80.43l-.062-10.244a30.391,30.391,0,0,1-.365-59.942l.121,19.828Z" transform="translate(-26 -79)"/><rect class="cls-23" x="2808" y="1521.078" width="120" height="119.098"/><rect class="cls-23" x="2994" y="1600.078" width="120" height="119.098" transform="translate(-36.048 -60.375) rotate(-0.349)"/><path d="M2820,1507.254a12.011,12.011,0,0,1-2.014-4.936H2814a15.609,15.609,0,0,0,3.2,7.68l2.8-2.744m7.68,4.738a11.422,11.422,0,0,1-4.857-2.033l-2.843,2.843a15.644,15.644,0,0,0,7.7,3.179v-3.988m-9.694-13.622a11.462,11.462,0,0,1,2.014-4.876l-2.8-2.8a15.609,15.609,0,0,0-3.2,7.68m17.63-1.974v-7.719a11.831,11.831,0,0,1,0,23.336V1516a15.778,15.778,0,0,0,0-31.312v-6.061l-8.983,8.983Z" transform="translate(-26 -79)"/><path d="M3120.448,1507.254l2.8,2.744a15.609,15.609,0,0,0,3.2-7.68h-3.988a12.011,12.011,0,0,1-2.014,4.936m-7.68,4.738v3.988a15.644,15.644,0,0,0,7.7-3.179l-2.843-2.843a11.422,11.422,0,0,1-4.857,2.033m13.682-13.622a15.609,15.609,0,0,0-3.2-7.68l-2.8,2.8a11.462,11.462,0,0,1,2.014,4.876m-4.659-10.76-8.983-8.983v6.061a15.778,15.778,0,0,0,0,31.312v-3.988a11.831,11.831,0,0,1,0-23.336v7.719Z" transform="translate(-26 -79)"/><path class="cls-24" d="M3116,1328" transform="translate(-26 -79)"/><rect class="cls-8" x="1082.25" y="969.5" width="338" height="735"/><line class="cls-8" x1="1082.25" y1="1042.5" x2="1420.25" y2="1042.5"/><text class="cls-14" transform="translate(1095.164 1021.343)">Brightness</text><line class="cls-18" x1="1131.25" y1="1172.5" x2="1360.5" y2="1172.5"/><circle class="cls-20" cx="1153.065" cy="1172.137" r="10.858"/><polygon class="cls-20" points="1170.5 1146.5 1170.5 1120.5 1128.5 1120.5 1128.5 1146.5 1146.604 1146.5 1152.5 1154.5 1156.452 1146.5 1170.5 1146.5"/><text class="cls-21" transform="translate(1139.064 1140.473)">10</text><path d="M1126.593,1242.205l-2.373-2.36-1.859,1.859,2.36,2.36Zm-3.638,7.461H1119v2.636h3.955Zm11.864-13.116h-2.636v3.889h2.636Zm9.82,5.154-1.859-1.859-2.36,2.36,1.859,1.859Zm-4.231,18.059,2.36,2.373,1.859-1.859-2.373-2.36Zm3.638-10.1v2.636H1148v-2.636Zm-10.545-6.591a7.909,7.909,0,1,0,7.909,7.909A7.915,7.915,0,0,0,1133.5,1243.075Zm-1.318,22.343h2.636v-3.889h-2.636Zm-9.82-5.154,1.859,1.859,2.36-2.373-1.859-1.859Z" transform="translate(-26 -79)"/><path d="M1408.376,1237.278l-3.242-3.224-2.54,2.54,3.224,3.224Zm-4.972,10.2H1398v3.6h5.4Zm16.212-17.924h-3.6v5.314h3.6Zm13.42,7.043-2.54-2.54-3.224,3.224,2.54,2.54Zm-5.782,24.679,3.224,3.242,2.54-2.54-3.242-3.224Zm4.972-13.8v3.6h5.4v-3.6Zm-14.411-9.007a10.808,10.808,0,1,0,10.808,10.808A10.817,10.817,0,0,0,1417.815,1238.467Zm-1.8,30.533h3.6v-5.314h-3.6Zm-13.42-7.043,2.54,2.54,3.224-3.242-2.54-2.54Z" transform="translate(-26 -79)"/><rect class="cls-8" x="1871.5" y="1028.5" width="839" height="632"/><line class="cls-18" x1="2841.174" y1="1220.604" x2="2841.174" y2="1358.5"/><circle class="cls-25" cx="2867.647" cy="1321.417" r="10.858" transform="translate(-32.66 -64.45) rotate(-0.29)"/><polygon class="cls-20" points="2867.373 1259.722 2893.372 1259.59 2893.159 1217.591 2867.16 1217.723 2867.252 1235.827 2859.282 1241.763 2867.301 1245.674 2867.373 1259.722"/><text class="cls-21" transform="translate(2868.506 1243.911) rotate(-0.971)">50</text><line class="cls-18" x1="2981.174" y1="1222.604" x2="2981.174" y2="1360.5"/><circle class="cls-26" cx="3006.647" cy="1417.417" r="10.858" transform="translate(-33.145 -63.744) rotate(-0.29)"/><polygon class="cls-20" points="3008.373 1353.722 3034.372 1353.59 3034.159 1311.591 3008.16 1311.723 3008.252 1329.827 3000.282 1335.763 3008.301 1339.674 3008.373 1353.722"/><text class="cls-21" transform="translate(3009.506 1337.911) rotate(-0.971)">50</text><rect class="cls-27" x="2659.5" y="1028.5" width="50" height="632"/><rect class="cls-28" x="1872.5" y="1029.5" width="50" height="632"/><rect class="cls-29" x="2291.5" y="1295.5" width="50" height="840" transform="translate(4006 -680) rotate(90)"/><rect class="cls-30" x="1870.5" y="1029.5" width="840" height="50"/><rect class="cls-31" x="1537" y="882.5" width="124" height="79"/><path class="cls-8" d="M1869.5,1014.5s-58.367-87.725-134-31c-36,27-49,18-49,18" transform="translate(-26 -79)"/><text class="cls-16" transform="translate(1541.274 910.958)">Open</text><line class="cls-32" x1="1536.9" y1="921.5" x2="1661.9" y2="921.5"/><text class="cls-16" transform="translate(1542.213 950.373) rotate(-0.027)">Expo<tspan class="cls-33" x="65.859" y="0">r</tspan><tspan x="76.743" y="0">t</tspan></text><text class="cls-16" transform="translate(1542.454 1013.514)">C<tspan class="cls-34" x="19.526" y="0">r</tspan><tspan x="29.385" y="0">op &amp; Rotate</tspan></text><text class="cls-16" transform="translate(1579.564 1098.242)">Add<tspan class="cls-35" x="53.408" y="0"> </tspan><tspan class="cls-36" x="60.249" y="0">T</tspan><tspan x="76.699" y="0">ext</tspan></text><text class="cls-16" transform="translate(1628.028 1179.101)">D<tspan class="cls-35" x="19.673" y="0">r</tspan><tspan x="29.238" y="0">aw</tspan></text><text class="cls-16" transform="translate(1588.743 1267.251)">Brightness</text><text class="cls-16" transform="translate(1615.581 1348.192)">Cont<tspan class="cls-35" x="62.988" y="0">r</tspan><tspan x="72.554" y="0">ast</tspan></text><text class="cls-16" transform="translate(1610.633 1418.366)">Metadata</text><path d="M2891,81V844H1529V81H2891m2-2H1527V846H2893V79Z" transform="translate(-26 -79)"/><rect class="cls-8" x="0.5" y="2007.5" width="1366" height="33"/><rect class="cls-8" x="0.5" y="2040.5" width="61" height="735"/><rect class="cls-8" x="61.5" y="2040.5" width="967" height="735"/><rect class="cls-8" x="1028.5" y="2040.5" width="338" height="735"/><rect class="cls-8" x="122.5" y="2101.5" width="839" height="632"/><text class="cls-12" transform="translate(65.691 2034.642)">File</text><path class="cls-13" d="M239,2505h24v24H239Zm0,0h24v24H239Z" transform="translate(-26 -79)"/><path d="M47.751,2177.875a21.5,21.5,0,0,1-12.189-17.334H32.5A24.488,24.488,0,0,0,56.9,2183c.47,0,.9-.041,1.347-.061l-7.779-7.8ZM57.1,2134c-.47,0-.9.041-1.347.082l7.779,7.779,2.715-2.715a21.44,21.44,0,0,1,12.189,17.313H81.5A24.488,24.488,0,0,0,57.1,2134Zm8.065,28.583H69.25v-12.25a4.082,4.082,0,0,0-4.083-4.083H52.917v4.083h12.25Zm-16.333,4.083v-24.5H44.75v4.083H40.667v4.083H44.75v16.333a4.082,4.082,0,0,0,4.083,4.083H65.167v4.083H69.25v-4.083h4.083v-4.083Z" transform="translate(-26 -79)"/><path d="M40,2335.293V2343h7.707l22.731-22.731-7.707-7.707Zm36.4-20.984a2.047,2.047,0,0,0,0-2.9L71.59,2306.6a2.047,2.047,0,0,0-2.9,0l-3.761,3.761,7.707,7.707Z" transform="translate(-26 -79)"/><path class="cls-13" d="M239,2505h24v24H239Z" transform="translate(-26 -79)"/><path d="M48.376,2401.278l-3.242-3.224-2.54,2.54,3.224,3.224Zm-4.972,10.2H38v3.6h5.4Zm16.212-17.924h-3.6v5.314h3.6Zm13.42,7.043-2.54-2.54-3.224,3.224,2.54,2.54Zm-5.782,24.679,3.224,3.242,2.54-2.54-3.242-3.224Zm4.972-13.8v3.6h5.4v-3.6Zm-14.411-9.007a10.808,10.808,0,1,0,10.808,10.808A10.817,10.817,0,0,0,57.815,2402.467ZM56.014,2433h3.6v-5.314h-3.6Zm-13.42-7.043,2.54,2.54,3.224-3.242-2.54-2.54Z" transform="translate(-26 -79)"/><path d="M55.5,2503.3a16.065,16.065,0,0,1-11.037-4.329l22.074-20.942A14.454,14.454,0,0,1,71.1,2488.5c0,8.174-6.984,14.8-15.6,14.8m-11.7-22.2h3.9v-3.7h2.925v3.7h3.9v2.775h-3.9v3.7H47.7v-3.7H43.8M55.5,2470c-10.77,0-19.5,8.283-19.5,18.5s8.73,18.5,19.5,18.5,19.5-8.283,19.5-18.5S66.27,2470,55.5,2470m0,25.9h9.75v-2.775H55.5Z" transform="translate(-26 -79)"/><path d="M47.475,2560.25a2.775,2.775,0,1,0-2.775-2.775,2.775,2.775,0,0,0,2.775,2.775m29.433,8.473A3.7,3.7,0,0,1,78,2571.35a3.617,3.617,0,0,1-1.092,2.609l-12.95,12.95A3.693,3.693,0,0,1,61.35,2588a3.77,3.77,0,0,1-2.627-1.091l-16.632-16.65A3.617,3.617,0,0,1,41,2567.65V2554.7a3.687,3.687,0,0,1,3.7-3.7H57.65a3.677,3.677,0,0,1,2.608,1.073l16.65,16.65M61.35,2584.3l12.95-12.95-15.725-15.725-12.95,12.95L61.35,2584.3m-5.383-20.517,2.608-2.608L68.75,2571.35l-2.608,2.609-10.175-10.175m-4.625,4.625,2.608-2.608,7.4,7.4-2.608,2.609Z" transform="translate(-26 -79)"/><path d="M73.44,2225.246l2.56,9.6-2.118.574c-.993-1.92-2.008-3.84-3.178-4.811a5.709,5.709,0,0,0-3.884-.949H61.3v23.17c0,1.1,0,2.207.728,2.758.75.552,2.207.552,3.685.552v2.207H52.477v-2.207c1.478,0,2.935,0,3.685-.552.728-.552.728-1.655.728-2.758v-23.17H51.373a5.709,5.709,0,0,0-3.884.949c-1.17.971-2.185,2.891-3.178,4.811l-2.118-.574,2.56-9.6Z" transform="translate(-26 -79)"/><text class="cls-14" transform="translate(480.517 2418.205)">I<tspan class="cls-15" x="12.239" y="0">M</tspan><tspan class="cls-10" x="51.921" y="0">A</tspan><tspan x="81.035" y="0">GE</tspan></text><rect class="cls-8" x="1029.25" y="2043.5" width="338" height="735"/><line class="cls-8" x1="1029.25" y1="2116.5" x2="1367.25" y2="2116.5"/><text class="cls-14" transform="translate(1042.164 2095.343)">Brightness</text><line class="cls-18" x1="1078.25" y1="2246.5" x2="1307.5" y2="2246.5"/><circle class="cls-20" cx="1100.065" cy="2246.137" r="10.858"/><polygon class="cls-20" points="1117.5 2220.5 1117.5 2194.5 1075.5 2194.5 1075.5 2220.5 1093.604 2220.5 1099.5 2228.5 1103.452 2220.5 1117.5 2220.5"/><text class="cls-21" transform="translate(1086.064 2214.473)">10</text><path d="M1073.593,2316.205l-2.373-2.36-1.859,1.859,2.36,2.36Zm-3.638,7.461H1066v2.636h3.955Zm11.864-13.116h-2.636v3.889h2.636Zm9.82,5.154-1.859-1.859-2.36,2.36,1.859,1.859Zm-4.231,18.059,2.36,2.373,1.859-1.859-2.373-2.36Zm3.638-10.1v2.636H1095v-2.636Zm-10.545-6.591a7.909,7.909,0,1,0,7.909,7.909A7.915,7.915,0,0,0,1080.5,2317.075Zm-1.318,22.343h2.636v-3.889h-2.636Zm-9.82-5.154,1.859,1.859,2.36-2.373-1.859-1.859Z" transform="translate(-26 -79)"/><path d="M1355.376,2311.278l-3.242-3.224-2.54,2.54,3.224,3.224Zm-4.972,10.2H1345v3.6h5.4Zm16.212-17.924h-3.6v5.314h3.6Zm13.42,7.043-2.54-2.54-3.224,3.224,2.54,2.54Zm-5.782,24.679,3.224,3.242,2.54-2.54-3.242-3.224Zm4.972-13.8v3.6h5.4v-3.6Zm-14.411-9.007a10.808,10.808,0,1,0,10.808,10.808A10.817,10.817,0,0,0,1364.815,2312.467Zm-1.8,30.533h3.6v-5.314h-3.6Zm-13.42-7.043,2.54,2.54,3.224-3.242-2.54-2.54Z" transform="translate(-26 -79)"/><rect class="cls-37" x="159" y="2074" width="775" height="703"/><rect class="cls-37" x="368" y="2112" width="543" height="42"/><rect class="cls-37" x="368" y="2170.6" width="169" height="42"/><rect class="cls-37" x="368" y="2287.8" width="543" height="42"/><rect class="cls-37" x="368" y="2229.2" width="543" height="42"/><rect class="cls-37" x="369" y="2463.6" width="543" height="42"/><rect class="cls-37" x="369" y="2522.2" width="543" height="42"/><rect class="cls-37" x="369" y="2580.8" width="543" height="42"/><rect class="cls-37" x="369" y="2346.4" width="543" height="42"/><rect class="cls-37" x="369" y="2639.4" width="543" height="42"/><rect class="cls-37" x="369" y="2405" width="543" height="42"/><rect class="cls-37" x="369" y="2698" width="543" height="42"/><text x="-26" y="-79"></text><text class="cls-16" transform="translate(207.033 2136.722)">Title:</text><text class="cls-16" transform="translate(208.461 2198.692)">Date:</text><rect class="cls-37" x="557" y="2171" width="169" height="42"/><rect class="cls-37" x="740" y="2171" width="169" height="42"/><text class="cls-16" transform="translate(208.028 2256.668)"><tspan class="cls-10">A</tspan><tspan x="19.409" y="0">uthor:</tspan></text></svg>